<svg width="16" height="20" viewBox="0 0 16 20" fill="currentcolor" xmlns="http://www.w3.org/2000/svg">
    <g id="Group">
        <g id="Group_2">
            <path id="Vector"
                  d="M5.47366 11.7895C5.24124 11.7895 5.05261 11.6008 5.05261 11.3684V1.68421C5.05261 0.755368 5.80798 0 6.73682 0C7.66566 0 8.42103 0.755368 8.42103 1.68421V10.5263C8.42103 10.7587 8.2324 10.9474 7.99998 10.9474C7.76756 10.9474 7.57893 10.7587 7.57893 10.5263V1.68421C7.57893 1.21937 7.20082 0.842105 6.73682 0.842105C6.27282 0.842105 5.89472 1.21937 5.89472 1.68421V11.3684C5.89472 11.6008 5.70609 11.7895 5.47366 11.7895Z"/>
        </g>
        <g id="Group_3">
            <path id="Vector_2"
                  d="M10.5263 10.9474C10.2939 10.9474 10.1053 10.7587 10.1053 10.5263V6.73684C10.1053 6.272 9.72719 5.89474 9.26319 5.89474C8.79919 5.89474 8.42108 6.272 8.42108 6.73684C8.42108 6.96926 8.23245 7.15789 8.00003 7.15789C7.76761 7.15789 7.57898 6.96926 7.57898 6.73684C7.57898 5.808 8.33435 5.05263 9.26319 5.05263C10.192 5.05263 10.9474 5.808 10.9474 6.73684V10.5263C10.9474 10.7587 10.7588 10.9474 10.5263 10.9474Z"/>
        </g>
        <g id="Group_4">
            <path id="Vector_3"
                  d="M13.0527 10.9474C12.8202 10.9474 12.6316 10.7587 12.6316 10.5263V7.57895C12.6316 7.11411 12.2535 6.73684 11.7895 6.73684C11.3255 6.73684 10.9474 7.11411 10.9474 7.57895C10.9474 7.81137 10.7588 8 10.5263 8C10.2939 8 10.1053 7.81137 10.1053 7.57895C10.1053 6.65011 10.8607 5.89474 11.7895 5.89474C12.7183 5.89474 13.4737 6.65011 13.4737 7.57895V10.5263C13.4737 10.7587 13.2851 10.9474 13.0527 10.9474Z"/>
        </g>
        <g id="Group_5">
            <path id="Vector_4"
                  d="M12.2105 19.3684H7.33726C6.02442 19.3684 4.82442 18.704 4.12716 17.5924L0.267789 11.4383C0.266105 11.4349 0.264421 11.4324 0.262737 11.4299C0.0909474 11.168 0 10.8556 0 10.5263C0 9.59747 0.755368 8.84211 1.68421 8.84211C1.99411 8.84211 2.29137 8.92379 2.544 9.07874C2.55074 9.08211 2.55747 9.08632 2.56337 9.09053L5.69347 11.0097C5.89137 11.1309 5.95453 11.3903 5.83242 11.5891C5.71116 11.7861 5.45011 11.8493 5.25305 11.7272L2.14147 9.81895C2.13221 9.8139 2.12379 9.80884 2.11453 9.80295C1.99242 9.72547 1.84337 9.68421 1.68421 9.68421C1.22021 9.68421 0.842105 10.0615 0.842105 10.5263C0.842105 10.6829 0.883368 10.8337 0.958316 10.9558C0.962526 10.9617 0.965895 10.9676 0.970105 10.9735L4.84042 17.1453C5.38274 18.0101 6.31579 18.5263 7.33726 18.5263H12.2105C13.8358 18.5263 15.1579 17.2042 15.1579 15.5789V8.42105C15.1579 7.95621 14.7798 7.57895 14.3158 7.57895C13.8518 7.57895 13.4737 7.95621 13.4737 8.42105C13.4737 8.65347 13.2851 8.84211 13.0526 8.84211C12.8202 8.84211 12.6316 8.65347 12.6316 8.42105C12.6316 7.49221 13.3869 6.73684 14.3158 6.73684C15.2446 6.73684 16 7.49221 16 8.42105V15.5789C16 17.6682 14.2998 19.3684 12.2105 19.3684Z"/>
        </g>
    </g>
</svg>
